<svg width="1200" height="900" viewBox="0 0 1200 900" fill="none" xmlns="http://www.w3.org/2000/svg">
  <defs>
    <linearGradient id="g1" x1="170" y1="130" x2="980" y2="780" gradientUnits="userSpaceOnUse">
      <stop stop-color="#0EA5E9" stop-opacity="0.30"/>
      <stop offset="0.48" stop-color="#8B5CF6" stop-opacity="0.20"/>
      <stop offset="1" stop-color="#F43F5E" stop-opacity="0.18"/>
    </linearGradient>
    <linearGradient id="g2" x1="240" y1="210" x2="920" y2="740" gradientUnits="userSpaceOnUse">
      <stop stop-color="#E2E8F0" stop-opacity="0.95"/>
      <stop offset="1" stop-color="#CBD5E1" stop-opacity="0.65"/>
    </linearGradient>
    <filter id="blur" x="0" y="0" width="1200" height="900" filterUnits="userSpaceOnUse">
      <feGaussianBlur stdDeviation="40"/>
    </filter>
  </defs>
  <rect width="1200" height="900" rx="48" fill="#050816"/>
  <circle cx="260" cy="220" r="180" fill="#38BDF8" fill-opacity="0.16" filter="url(#blur)"/>
  <circle cx="930" cy="210" r="220" fill="#A855F7" fill-opacity="0.16" filter="url(#blur)"/>
  <circle cx="640" cy="760" r="230" fill="#F43F5E" fill-opacity="0.10" filter="url(#blur)"/>
  <path d="M120 650C230 540 390 500 600 500C810 500 970 540 1080 650" stroke="url(#g1)" stroke-width="28" stroke-linecap="round" opacity="0.8"/>
  <path d="M160 640C260 560 410 520 600 520C790 520 940 560 1040 640" stroke="#94A3B8" stroke-opacity="0.14" stroke-width="2"/>
  <g transform="translate(175 140)">
    <rect x="0" y="0" width="850" height="560" rx="36" fill="#0B1224" stroke="white" stroke-opacity="0.08"/>
    <rect x="34" y="34" width="782" height="96" rx="24" fill="white" fill-opacity="0.03"/>
    <rect x="58" y="60" width="168" height="18" rx="9" fill="white" fill-opacity="0.20"/>
    <rect x="58" y="88" width="280" height="14" rx="7" fill="white" fill-opacity="0.10"/>
    <circle cx="714" cy="82" r="22" fill="#22C55E" fill-opacity="0.20"/>
    <path d="M714 69L725 82L714 95L703 82L714 69Z" fill="#22C55E"/>
    <rect x="58" y="156" width="364" height="328" rx="28" fill="url(#g2)"/>
    <rect x="448" y="156" width="362" height="144" rx="28" fill="white" fill-opacity="0.05"/>
    <rect x="448" y="320" width="362" height="164" rx="28" fill="white" fill-opacity="0.05"/>
    <circle cx="146" cy="264" r="70" fill="#0EA5E9" fill-opacity="0.25"/>
    <circle cx="146" cy="264" r="42" fill="#0F172A"/>
    <path d="M118 264H174" stroke="#FFFFFF" stroke-opacity="0.8" stroke-width="6" stroke-linecap="round"/>
    <path d="M146 236V292" stroke="#FFFFFF" stroke-opacity="0.8" stroke-width="6" stroke-linecap="round"/>
    <rect x="232" y="224" width="130" height="18" rx="9" fill="#0F172A" fill-opacity="0.6"/>
    <rect x="232" y="256" width="160" height="14" rx="7" fill="#0F172A" fill-opacity="0.42"/>
    <rect x="232" y="286" width="108" height="14" rx="7" fill="#0F172A" fill-opacity="0.34"/>
    <rect x="484" y="186" width="220" height="16" rx="8" fill="white" fill-opacity="0.24"/>
    <rect x="484" y="218" width="176" height="12" rx="6" fill="white" fill-opacity="0.12"/>
    <rect x="484" y="254" width="124" height="14" rx="7" fill="#22C55E" fill-opacity="0.65"/>
    <rect x="484" y="352" width="228" height="18" rx="9" fill="white" fill-opacity="0.22"/>
    <rect x="484" y="386" width="276" height="12" rx="6" fill="white" fill-opacity="0.10"/>
    <rect x="484" y="416" width="160" height="12" rx="6" fill="white" fill-opacity="0.10"/>
    <rect x="58" y="516" width="782" height="2" rx="1" fill="white" fill-opacity="0.08"/>
    <rect x="58" y="534" width="180" height="12" rx="6" fill="white" fill-opacity="0.12"/>
    <rect x="260" y="534" width="156" height="12" rx="6" fill="white" fill-opacity="0.08"/>
    <rect x="436" y="534" width="120" height="12" rx="6" fill="white" fill-opacity="0.08"/>
    <rect x="700" y="530" width="140" height="18" rx="9" fill="#8B5CF6" fill-opacity="0.35"/>
  </g>
  <g opacity="0.95">
    <circle cx="910" cy="660" r="58" fill="#22C55E" fill-opacity="0.18"/>
    <circle cx="910" cy="660" r="32" fill="#111827"/>
    <path d="M892 660H928" stroke="#22C55E" stroke-width="6" stroke-linecap="round"/>
    <path d="M910 642V678" stroke="#22C55E" stroke-width="6" stroke-linecap="round"/>
  </g>
</svg>
